<svg width="27" height="14" viewBox="0 0 27 14" xmlns="http://www.w3.org/2000/svg"><title>Group</title><g fill="none"><path fill="#FFF" d="M6.764.625h13.491v13.25H6.764z"/><path fill="#DAEAE7" d="M6.764 7.375h13.491V14H6.764z"/><path fill="#EE3725" d="M6.764.625h13.49L13.51 7.25 6.764.625m0 13.25h13.49L13.51 7.25l-6.745 6.625"/><path fill="#FF6700" d="M6.764.625v13.25L.018 7.25 6.764.625"/><path fill="#EE3725" d="M6.764 3.125v10.75L.018 7.25l6.746-4.125"/><path fill="#FF6700" d="M20.255.625v13.25L27 7.25 20.255.625"/><path fill="#EE3725" d="M20.255 3.125v10.75L27 7.25l-6.745-4.125"/><path fill="#FF6700" d="M9.33 3h8.34L20 1H7z"/><path fill="#D60F05" d="M20 11v3l3-3zM7 14h13l-2.943-3H9.943zm-3-3l3 3v-3z"/></g></svg>