<svg width="20" height="24" viewBox="0 0 20 24" xmlns="http://www.w3.org/2000/svg"><title>paypal</title><g fill="none"><path d="M5.04 20.993c-1.478.005-2.961.01-4.44.005-.4 0-.656-.354-.59-.766.248-1.584.48-3.168.728-4.748.223-1.421.466-2.842.69-4.269.161-1.029.304-2.058.465-3.087.238-1.517.485-3.034.728-4.551.138-.871.266-1.742.4-2.614.085-.57.532-.957 1.112-.957 2.5 0 5.006-.019 7.507.01 1.364.014 2.72.186 3.96.823 1.289.65 2.073 1.709 2.33 3.144.119.67.076 1.34-.052 2.01a6.34 6.34 0 0 0-1.674-.564c-.722-.144-1.464-.182-2.201-.192a314.74 314.74 0 0 0-5.582 0c-.394.005-.746.168-.903.575-.072.186-.095.397-.124.603-.128.785-.252 1.574-.375 2.364-.096.608-.2 1.216-.29 1.824-.115.77-.214 1.546-.362 2.311-.047.254-.152.512-.076.785-.057.173-.11.345-.138.527-.133.885-.27 1.77-.409 2.656-.166 1.072-.323 2.149-.504 3.221-.057.297-.038.613-.2.89z" fill="#012D8A"/><path d="M5.238 21.308c.16-.28.142-.608.19-.912.18-1.098.336-2.197.502-3.3.138-.907.275-1.814.408-2.721.028-.186.08-.363.138-.54.256-.411.611-.593 1.095-.588 1.21 0 2.42.064 3.624-.093 1.077-.137 2.106-.422 3.065-.951 1.475-.82 2.48-2.07 3.111-3.653.3-.755.536-1.535.636-2.349.01-.02.014-.04.024-.054L18.059 6c1.129.618 1.731 1.608 1.893 2.903.132 1.064-.024 2.098-.28 3.128a7.79 7.79 0 0 1-.963 2.295 5.81 5.81 0 0 1-2.993 2.422 8.92 8.92 0 0 1-2.016.46c-.574.07-1.148.07-1.722.074-.579 0-.949.329-1.03.917-.175 1.24-.35 2.481-.56 3.722-.07.422-.127.848-.198 1.265-.09.51-.441.814-.94.814H5.622c-.46 0-.683-.275-.607-.735l.27-1.702c.014-.093.038-.186-.047-.255z" fill="#019AE0"/><path d="M18 5.78l-.03.136c-.01.018-.014.036-.024.05-.103.75-.348 1.468-.657 2.163-.652 1.46-1.691 2.612-3.216 3.366-.99.488-2.06.75-3.167.877-1.245.14-2.496.086-3.746.086-.5 0-.868.162-1.132.542-.079-.253.03-.502.078-.741.147-.723.255-1.455.373-2.182.093-.574.2-1.148.299-1.722.127-.745.255-1.486.387-2.232.034-.19.054-.388.128-.569.161-.384.524-.542.931-.542a349.16 349.16 0 0 1 5.756 0c.76.009 1.52.045 2.27.18a6.896 6.896 0 0 1 1.725.534c.01.027.02.04.025.054z" fill="#001F6B"/><path d="M18 6.5c.1-.182.15-.364.25-.5-.1.136-.15.318-.25.5z" fill="#012D8A"/></g></svg>