<svg width="24" height="24" viewBox="0 0 24 24" xmlns="http://www.w3.org/2000/svg"><title>if_Asset_32_2001659</title><g fill="none" fill-rule="evenodd"><rect fill="#6772E5" fill-rule="nonzero" width="24" height="24" rx="6.48"/><path d="M10.597 9.868c0-.56.461-.813 1.207-.813a7.953 7.953 0 0 1 3.54.919V6.65A9.372 9.372 0 0 0 11.812 6C8.928 6 7 7.51 7 10.063c0 3.948 5.411 3.307 5.411 5.013 0 .658-.575.87-1.36.87a8.94 8.94 0 0 1-3.938-1.163v3.405a9.85 9.85 0 0 0 3.889.812C13.959 19 16 17.538 16 14.938c.024-4.233-5.403-3.47-5.403-5.07z" fill="#FFF"/></g></svg>